<svg width="208" height="61" viewBox="0 0 208 61" fill="none" xmlns="http://www.w3.org/2000/svg">
<g clip-path="url(#clip0_11951_148230)">
<path d="M50.5583 12.6059C58.2167 12.3392 65.8828 12.604 73.5278 13.0891C74.3327 13.1582 75.1481 13.1525 75.9405 13.3199C76.3693 13.422 76.8325 13.5837 77.0833 13.9686C77.312 14.3875 77.3168 14.8764 77.3761 15.3379C77.558 17.6047 77.6116 19.8809 77.7829 22.1476C77.4517 22.1873 77.1206 22.1372 76.7894 22.1268C70.893 21.8251 64.9917 21.5745 59.0857 21.567C56.027 21.5755 52.9644 21.5462 49.9085 21.6927C49.1677 21.8005 48.3293 22.0455 47.9015 22.698C50.2138 23.1037 52.5212 23.5415 54.8325 23.9548C62.4929 25.3713 70.1589 26.7567 77.8192 28.1714C77.8125 29.607 77.8154 31.0425 77.8183 32.478C73.5105 31.7735 69.2105 31.0131 64.9056 30.2859C55.6441 28.7086 46.3855 27.1095 37.1212 25.5472C37.1394 23.9538 37.2083 22.3613 37.2418 20.7669C37.3001 19.5045 37.2638 18.225 37.5528 16.9853C37.7471 16.1105 38.1069 15.2311 38.7778 14.606C39.9359 13.4731 41.6107 13.1544 43.1698 12.9946C45.6266 12.7695 48.0939 12.6957 50.5583 12.6059ZM37.0771 27.6438C50.3458 30.0628 63.6097 32.5224 76.8765 34.9556C77.1665 35.0256 77.4766 35.0312 77.7551 35.1362L77.7886 35.2119C77.7159 37.3623 77.6738 39.5146 77.5953 41.665C77.5446 42.9918 77.4029 44.38 76.7119 45.5489C75.9711 46.7574 74.5911 47.426 73.2253 47.6785C71.2126 48.052 69.1569 48.0766 67.1183 48.1872C58.3469 48.5806 49.5572 48.3631 40.8001 47.7674C40.1005 47.7191 39.3885 47.7068 38.7089 47.5149C38.3567 47.4052 37.9931 47.2283 37.794 46.9068C37.5806 46.4851 37.5672 46.0037 37.5145 45.5441C37.3269 43.0353 37.2274 40.5217 37.0944 38.0101C41.6117 38.2938 46.1367 38.4526 50.6626 38.5519C55.0326 38.6219 59.4025 38.621 63.7724 38.6635C64.7152 38.7023 65.7344 38.5245 66.4494 37.8701C66.5537 37.7519 66.7231 37.6422 66.7058 37.4654C64.7362 37.1732 62.7781 36.81 60.8123 36.4904C52.9031 35.1542 44.9901 33.8303 37.0819 32.4865C37.0724 30.8722 37.0838 29.258 37.0771 27.6438Z" fill="#E4E4E4"/>
<path d="M148.541 25.6641V30.6562H137.856V29.25C137.856 27.0703 138.092 25.6289 139.814 25.6289H148.541V25.6641ZM139.153 22.5703C136.346 22.5703 135.049 24.7851 135.049 28.3711V38.4258H137.856V33.7851H148.541V38.3906H151.348V22.5703H139.153ZM154.816 22.5703V25.6641H161.42V38.3906H164.227V25.6641H170.832V22.5703H154.816ZM117.028 32.3086C117.028 34.5234 117.335 35.332 118.986 35.332H130.709V38.4258H118.325C115.518 38.4258 114.197 36.5273 114.197 32.9765V22.5703H130.685V25.6641H117.004V28.7578H130.119V31.7988H117.004V32.3262L117.028 32.3086ZM96.9312 28.0898C96.0584 27.9844 95.9169 27.5273 95.9169 26.7539C95.9169 26.0508 96.1764 25.6289 96.8368 25.6289H109.787V22.5703H96.5066C94.6196 22.5703 93.3223 23.6601 93.3223 26.7891C93.3223 29.918 94.2894 31.0078 96.4594 31.289L106.956 32.5898C107.758 32.6953 107.994 33.082 107.994 33.9609C107.994 34.7695 107.758 35.2969 107.027 35.2969H93.8412V38.3906H107.239C109.551 38.3906 110.565 37.0195 110.565 33.7851C110.565 30.832 109.645 29.6367 107.404 29.3555L96.9312 28.0898Z" fill="#E4E4E4"/>
</g>
<defs>
<clipPath id="clip0_11951_148230">
<rect width="134.222" height="36" fill="white" transform="translate(36.8887 12.5)"/>
</clipPath>
</defs>
</svg>
