<svg width="1115" height="284" viewBox="0 0 1115 284" fill="none" xmlns="http://www.w3.org/2000/svg">
<g clip-path="url(#clip0_2_722)">
<g opacity="0.8">
<g opacity="0.6">
<path d="M393.051 130.022C393.705 129.513 393.821 128.57 393.312 127.917C392.803 127.263 391.86 127.147 391.207 127.656C390.553 128.165 390.437 129.108 390.946 129.761C391.455 130.415 392.398 130.531 393.051 130.022Z" fill="#D9D9D9"/>
<path d="M337.027 111.288C337.681 110.779 337.797 109.836 337.288 109.183C336.779 108.529 335.836 108.413 335.183 108.922C334.529 109.431 334.413 110.374 334.922 111.027C335.431 111.681 336.374 111.797 337.027 111.288Z" fill="#D9D9D9"/>
<path d="M305.027 150.288C305.681 149.779 305.797 148.836 305.288 148.183C304.779 147.529 303.836 147.413 303.183 147.922C302.529 148.431 302.413 149.374 302.922 150.027C303.431 150.681 304.374 150.797 305.027 150.288Z" fill="#D9D9D9"/>
<path d="M374.14 124.475C374.575 124.135 374.653 123.507 374.314 123.071C373.974 122.636 373.346 122.558 372.91 122.897C372.475 123.237 372.397 123.865 372.736 124.301C373.076 124.736 373.704 124.814 374.14 124.475Z" fill="#D9D9D9"/>
<path d="M248.018 153.192C248.453 152.852 248.531 152.224 248.192 151.788C247.852 151.353 247.224 151.275 246.788 151.614C246.353 151.954 246.275 152.582 246.614 153.018C246.954 153.453 247.582 153.531 248.018 153.192Z" fill="#D9D9D9"/>
<path d="M396.707 111.95C397.361 111.441 397.477 110.498 396.968 109.845C396.459 109.191 395.516 109.075 394.863 109.584C394.209 110.093 394.093 111.036 394.602 111.689C395.111 112.343 396.054 112.459 396.707 111.95Z" fill="#D9D9D9"/>
<path d="M479.027 134.288C479.681 133.779 479.797 132.836 479.288 132.183C478.779 131.529 477.836 131.413 477.183 131.922C476.529 132.431 476.413 133.374 476.922 134.027C477.431 134.681 478.374 134.797 479.027 134.288Z" fill="#D9D9D9"/>
<path d="M497.027 168.288C497.681 167.779 497.797 166.836 497.288 166.183C496.779 165.529 495.836 165.413 495.183 165.922C494.529 166.431 494.413 167.374 494.922 168.027C495.431 168.681 496.374 168.797 497.027 168.288Z" fill="#D9D9D9"/>
<path d="M298.027 110.288C298.681 109.779 298.797 108.836 298.288 108.183C297.779 107.529 296.836 107.413 296.183 107.922C295.529 108.431 295.413 109.374 295.922 110.027C296.431 110.681 297.374 110.797 298.027 110.288Z" fill="#D9D9D9"/>
<path d="M405.979 126.281C406.414 125.941 406.492 125.313 406.153 124.877C405.813 124.442 405.185 124.364 404.749 124.703C404.314 125.043 404.236 125.671 404.575 126.107C404.915 126.542 405.543 126.62 405.979 126.281Z" fill="#D9D9D9"/>
<path opacity="0.5" d="M399.065 141.81C399.5 141.47 399.578 140.842 399.239 140.406C398.899 139.971 398.271 139.893 397.835 140.232C397.399 140.572 397.322 141.2 397.661 141.636C398.001 142.071 398.629 142.149 399.065 141.81Z" fill="#D9D9D9"/>
<path opacity="0.5" d="M199.018 122.192C199.453 121.852 199.531 121.224 199.192 120.788C198.852 120.353 198.224 120.275 197.788 120.614C197.353 120.954 197.275 121.582 197.614 122.018C197.954 122.453 198.582 122.531 199.018 122.192Z" fill="#D9D9D9"/>
<path opacity="0.5" d="M369.018 180.192C369.453 179.852 369.531 179.224 369.192 178.788C368.852 178.353 368.224 178.275 367.788 178.614C367.353 178.954 367.275 179.582 367.614 180.018C367.954 180.453 368.582 180.531 369.018 180.192Z" fill="#D9D9D9"/>
<path opacity="0.5" d="M287.018 175.192C287.453 174.852 287.531 174.224 287.192 173.788C286.852 173.353 286.224 173.275 285.788 173.614C285.353 173.954 285.275 174.582 285.614 175.018C285.954 175.453 286.582 175.531 287.018 175.192Z" fill="#D9D9D9"/>
<path opacity="0.5" d="M555.019 135.192C555.454 134.852 555.532 134.224 555.193 133.788C554.853 133.353 554.225 133.275 553.789 133.614C553.354 133.954 553.276 134.582 553.615 135.018C553.955 135.453 554.583 135.531 555.019 135.192Z" fill="#D9D9D9"/>
<path opacity="0.5" d="M423.268 141.961C423.703 141.621 423.781 140.993 423.442 140.557C423.102 140.122 422.474 140.044 422.038 140.383C421.603 140.723 421.525 141.351 421.864 141.787C422.204 142.222 422.832 142.3 423.268 141.961Z" fill="#D9D9D9"/>
<path d="M434.829 175.969C434.018 176.137 433.496 176.931 433.664 177.742C433.832 178.553 434.626 179.075 435.437 178.907C436.248 178.739 436.77 177.945 436.602 177.134C436.434 176.323 435.64 175.801 434.829 175.969Z" fill="#D9D9D9"/>
<path d="M449.322 189.295C448.781 189.407 448.434 189.936 448.546 190.477C448.658 191.018 449.187 191.365 449.728 191.253C450.269 191.141 450.616 190.612 450.504 190.071C450.392 189.53 449.863 189.183 449.322 189.295Z" fill="#D9D9D9"/>
<path d="M332.978 175.203C332.437 175.315 332.09 175.844 332.202 176.385C332.314 176.926 332.843 177.273 333.384 177.161C333.925 177.049 334.272 176.52 334.16 175.979C334.048 175.438 333.519 175.091 332.978 175.203Z" fill="#D9D9D9"/>
<path d="M423.54 190.551C422.728 190.719 422.207 191.513 422.375 192.324C422.543 193.135 423.337 193.657 424.148 193.489C424.959 193.321 425.481 192.527 425.313 191.716C425.145 190.905 424.351 190.383 423.54 190.551Z" fill="#D9D9D9"/>
<path d="M238.47 186.304C237.659 186.472 237.137 187.266 237.305 188.077C237.473 188.888 238.267 189.41 239.078 189.242C239.89 189.074 240.411 188.28 240.243 187.469C240.075 186.658 239.281 186.136 238.47 186.304Z" fill="#D9D9D9"/>
<path d="M256.47 133.304C255.659 133.472 255.137 134.266 255.305 135.077C255.473 135.888 256.267 136.41 257.078 136.242C257.89 136.074 258.411 135.28 258.243 134.469C258.075 133.658 257.281 133.136 256.47 133.304Z" fill="#D9D9D9"/>
<path d="M421.56 173.606C421.019 173.718 420.672 174.247 420.784 174.788C420.896 175.329 421.425 175.676 421.966 175.564C422.507 175.452 422.854 174.923 422.742 174.382C422.63 173.841 422.101 173.494 421.56 173.606Z" fill="#D9D9D9"/>
<path d="M346.978 151.203C346.437 151.315 346.09 151.844 346.202 152.385C346.314 152.926 346.843 153.273 347.384 153.161C347.925 153.049 348.272 152.52 348.16 151.979C348.048 151.438 347.519 151.091 346.978 151.203Z" fill="#D9D9D9"/>
<path d="M512.978 161.203C512.437 161.315 512.09 161.844 512.202 162.385C512.314 162.926 512.843 163.273 513.384 163.161C513.925 163.049 514.272 162.52 514.16 161.979C514.048 161.438 513.519 161.091 512.978 161.203Z" fill="#D9D9D9"/>
<path d="M534.978 118.203C534.437 118.315 534.09 118.844 534.202 119.385C534.314 119.926 534.843 120.273 535.384 120.161C535.925 120.049 536.272 119.52 536.16 118.979C536.048 118.438 535.519 118.091 534.978 118.203Z" fill="#D9D9D9"/>
<path opacity="0.5" d="M434.627 162.729C434.086 162.841 433.739 163.37 433.851 163.911C433.963 164.452 434.492 164.799 435.033 164.687C435.574 164.575 435.921 164.046 435.809 163.505C435.697 162.964 435.168 162.617 434.627 162.729Z" fill="#D9D9D9"/>
<path opacity="0.5" d="M622.978 132.203C622.437 132.315 622.09 132.844 622.202 133.385C622.314 133.926 622.843 134.273 623.384 134.161C623.925 134.049 624.272 133.52 624.16 132.979C624.048 132.438 623.519 132.091 622.978 132.203Z" fill="#D9D9D9"/>
<path opacity="0.5" d="M412.978 151.882C412.437 151.994 412.09 152.523 412.202 153.064C412.314 153.605 412.843 153.952 413.384 153.84C413.925 153.728 414.272 153.199 414.16 152.658C414.048 152.117 413.519 151.77 412.978 151.882Z" fill="#D9D9D9"/>
<path d="M895.979 275.512C896.414 275.852 896.492 276.48 896.153 276.916C895.813 277.351 895.185 277.429 894.749 277.09C894.314 276.75 894.236 276.122 894.575 275.686C894.915 275.251 895.543 275.173 895.979 275.512Z" fill="#D9D9D9"/>
<path opacity="0.5" d="M889.065 259.984C889.5 260.324 889.578 260.952 889.239 261.388C888.899 261.823 888.271 261.901 887.835 261.562C887.399 261.222 887.322 260.594 887.661 260.158C888.001 259.723 888.629 259.645 889.065 259.984Z" fill="#D9D9D9"/>
<path opacity="0.5" d="M689.018 279.601C689.453 279.941 689.531 280.569 689.192 281.005C688.852 281.44 688.224 281.518 687.788 281.179C687.353 280.839 687.275 280.211 687.614 279.775C687.954 279.34 688.582 279.262 689.018 279.601Z" fill="#D9D9D9"/>
<path opacity="0.5" d="M859.018 221.601C859.453 221.941 859.531 222.569 859.192 223.005C858.852 223.44 858.224 223.518 857.788 223.179C857.353 222.839 857.275 222.211 857.614 221.775C857.954 221.34 858.582 221.262 859.018 221.601Z" fill="#D9D9D9"/>
<path opacity="0.5" d="M777.018 226.601C777.453 226.941 777.531 227.569 777.192 228.005C776.852 228.44 776.224 228.518 775.788 228.179C775.353 227.839 775.275 227.211 775.614 226.775C775.954 226.34 776.582 226.262 777.018 226.601Z" fill="#D9D9D9"/>
<path opacity="0.5" d="M1045.01 266.601C1045.45 266.941 1045.53 267.569 1045.19 268.005C1044.85 268.44 1044.22 268.518 1043.79 268.179C1043.35 267.839 1043.27 267.211 1043.61 266.775C1043.95 266.34 1044.58 266.262 1045.01 266.601Z" fill="#D9D9D9"/>
<path opacity="0.5" d="M913.268 259.832C913.703 260.172 913.781 260.8 913.442 261.236C913.102 261.671 912.474 261.749 912.038 261.41C911.603 261.07 911.525 260.442 911.864 260.006C912.204 259.571 912.832 259.493 913.268 259.832Z" fill="#D9D9D9"/>
<path d="M924.829 225.824C924.018 225.656 923.496 224.862 923.664 224.051C923.832 223.24 924.626 222.718 925.437 222.886C926.248 223.054 926.77 223.848 926.602 224.659C926.434 225.47 925.64 225.992 924.829 225.824Z" fill="#D9D9D9"/>
<path d="M939.322 212.498C938.781 212.386 938.434 211.857 938.546 211.316C938.658 210.775 939.187 210.428 939.728 210.54C940.269 210.652 940.616 211.181 940.504 211.722C940.392 212.263 939.863 212.61 939.322 212.498Z" fill="#D9D9D9"/>
<path d="M822.978 226.59C822.437 226.478 822.09 225.949 822.202 225.408C822.314 224.867 822.843 224.52 823.384 224.632C823.925 224.744 824.272 225.273 824.16 225.814C824.048 226.355 823.519 226.702 822.978 226.59Z" fill="#D9D9D9"/>
<path d="M913.54 211.242C912.729 211.074 912.207 210.28 912.375 209.469C912.543 208.658 913.337 208.136 914.148 208.304C914.96 208.472 915.481 209.266 915.313 210.077C915.145 210.888 914.351 211.41 913.54 211.242Z" fill="#D9D9D9"/>
<path d="M728.47 215.489C727.659 215.321 727.137 214.527 727.305 213.716C727.473 212.905 728.267 212.383 729.078 212.551C729.89 212.719 730.411 213.513 730.243 214.324C730.075 215.135 729.281 215.657 728.47 215.489Z" fill="#D9D9D9"/>
<path d="M746.47 268.489C745.659 268.321 745.137 267.527 745.305 266.716C745.473 265.905 746.267 265.383 747.078 265.551C747.89 265.719 748.411 266.513 748.243 267.324C748.075 268.135 747.281 268.657 746.47 268.489Z" fill="#D9D9D9"/>
<path d="M911.56 228.187C911.019 228.075 910.672 227.546 910.784 227.005C910.896 226.464 911.425 226.117 911.966 226.229C912.507 226.341 912.854 226.87 912.742 227.411C912.63 227.952 912.101 228.299 911.56 228.187Z" fill="#D9D9D9"/>
<path d="M836.978 250.59C836.437 250.478 836.09 249.949 836.202 249.408C836.314 248.867 836.843 248.52 837.384 248.632C837.925 248.744 838.272 249.273 838.16 249.814C838.048 250.355 837.519 250.702 836.978 250.59Z" fill="#D9D9D9"/>
<path d="M1002.98 240.59C1002.44 240.478 1002.09 239.949 1002.2 239.408C1002.31 238.867 1002.84 238.52 1003.38 238.632C1003.92 238.744 1004.27 239.273 1004.16 239.814C1004.05 240.355 1003.52 240.702 1002.98 240.59Z" fill="#D9D9D9"/>
<path d="M1024.98 283.59C1024.44 283.478 1024.09 282.949 1024.2 282.408C1024.31 281.867 1024.84 281.52 1025.38 281.632C1025.92 281.744 1026.27 282.273 1026.16 282.814C1026.05 283.355 1025.52 283.702 1024.98 283.59Z" fill="#D9D9D9"/>
<path opacity="0.5" d="M924.627 239.065C924.086 238.953 923.739 238.424 923.851 237.883C923.963 237.342 924.492 236.995 925.033 237.107C925.574 237.219 925.921 237.748 925.809 238.289C925.697 238.83 925.168 239.177 924.627 239.065Z" fill="#D9D9D9"/>
<path opacity="0.5" d="M1112.98 269.59C1112.44 269.478 1112.09 268.949 1112.2 268.408C1112.31 267.867 1112.84 267.52 1113.38 267.632C1113.92 267.744 1114.27 268.273 1114.16 268.814C1114.05 269.355 1113.52 269.702 1112.98 269.59Z" fill="#D9D9D9"/>
<path opacity="0.5" d="M902.978 249.911C902.437 249.799 902.09 249.27 902.202 248.729C902.314 248.188 902.843 247.841 903.384 247.953C903.925 248.065 904.272 248.594 904.16 249.135C904.048 249.676 903.519 250.023 902.978 249.911Z" fill="#D9D9D9"/>
<path d="M754.979 181.512C755.414 181.852 755.492 182.48 755.153 182.916C754.813 183.351 754.185 183.429 753.749 183.09C753.314 182.75 753.236 182.122 753.575 181.686C753.915 181.251 754.543 181.173 754.979 181.512Z" fill="#D9D9D9"/>
<path opacity="0.5" d="M748.065 165.984C748.5 166.324 748.578 166.952 748.239 167.388C747.899 167.823 747.271 167.901 746.835 167.562C746.399 167.222 746.322 166.594 746.661 166.158C747.001 165.723 747.629 165.645 748.065 165.984Z" fill="#D9D9D9"/>
<path opacity="0.5" d="M548.018 185.601C548.453 185.941 548.531 186.569 548.192 187.005C547.852 187.44 547.224 187.518 546.788 187.179C546.353 186.839 546.275 186.211 546.614 185.775C546.954 185.34 547.582 185.262 548.018 185.601Z" fill="#D9D9D9"/>
<path opacity="0.5" d="M718.018 127.601C718.453 127.941 718.531 128.569 718.192 129.005C717.852 129.44 717.224 129.518 716.788 129.179C716.353 128.839 716.275 128.211 716.614 127.775C716.954 127.34 717.582 127.262 718.018 127.601Z" fill="#D9D9D9"/>
<path opacity="0.5" d="M636.018 132.601C636.453 132.941 636.531 133.569 636.192 134.005C635.852 134.44 635.224 134.518 634.788 134.179C634.353 133.839 634.275 133.211 634.614 132.775C634.954 132.34 635.582 132.262 636.018 132.601Z" fill="#D9D9D9"/>
<path opacity="0.5" d="M904.018 172.601C904.453 172.941 904.531 173.569 904.192 174.005C903.852 174.44 903.224 174.518 902.788 174.179C902.353 173.839 902.275 173.211 902.614 172.775C902.954 172.34 903.582 172.262 904.018 172.601Z" fill="#D9D9D9"/>
<path opacity="0.5" d="M772.268 165.832C772.703 166.172 772.781 166.8 772.442 167.236C772.102 167.671 771.474 167.749 771.038 167.41C770.603 167.07 770.525 166.442 770.864 166.006C771.204 165.571 771.832 165.493 772.268 165.832Z" fill="#D9D9D9"/>
<path d="M783.829 131.824C783.018 131.656 782.496 130.862 782.664 130.051C782.832 129.24 783.626 128.718 784.437 128.886C785.248 129.054 785.77 129.848 785.602 130.659C785.434 131.47 784.64 131.992 783.829 131.824Z" fill="#D9D9D9"/>
<path d="M798.322 118.498C797.781 118.386 797.434 117.857 797.546 117.316C797.658 116.775 798.187 116.428 798.728 116.54C799.269 116.652 799.616 117.181 799.504 117.722C799.392 118.263 798.863 118.61 798.322 118.498Z" fill="#D9D9D9"/>
<path d="M681.978 132.59C681.437 132.478 681.09 131.949 681.202 131.408C681.314 130.867 681.843 130.52 682.384 130.632C682.925 130.744 683.272 131.273 683.16 131.814C683.048 132.355 682.519 132.702 681.978 132.59Z" fill="#D9D9D9"/>
<path d="M772.54 117.242C771.729 117.074 771.207 116.28 771.375 115.469C771.543 114.658 772.337 114.136 773.148 114.304C773.96 114.472 774.481 115.266 774.313 116.077C774.145 116.888 773.351 117.41 772.54 117.242Z" fill="#D9D9D9"/>
<path d="M587.47 121.489C586.659 121.321 586.137 120.527 586.305 119.716C586.473 118.905 587.267 118.383 588.078 118.551C588.89 118.719 589.411 119.513 589.243 120.324C589.075 121.135 588.281 121.657 587.47 121.489Z" fill="#D9D9D9"/>
<path d="M605.47 174.489C604.659 174.321 604.137 173.527 604.305 172.716C604.473 171.905 605.267 171.383 606.078 171.551C606.89 171.719 607.411 172.513 607.243 173.324C607.075 174.135 606.281 174.657 605.47 174.489Z" fill="#D9D9D9"/>
<path d="M770.56 134.187C770.019 134.075 769.672 133.546 769.784 133.005C769.896 132.464 770.425 132.117 770.966 132.229C771.507 132.341 771.854 132.87 771.742 133.411C771.63 133.952 771.101 134.299 770.56 134.187Z" fill="#D9D9D9"/>
<path d="M695.978 156.59C695.437 156.478 695.09 155.949 695.202 155.408C695.314 154.867 695.843 154.52 696.384 154.632C696.925 154.744 697.272 155.273 697.16 155.814C697.048 156.355 696.519 156.702 695.978 156.59Z" fill="#D9D9D9"/>
<path d="M861.978 146.59C861.437 146.478 861.09 145.949 861.202 145.408C861.314 144.867 861.843 144.52 862.384 144.632C862.925 144.744 863.272 145.273 863.16 145.814C863.048 146.355 862.519 146.702 861.978 146.59Z" fill="#D9D9D9"/>
<path d="M883.978 189.59C883.437 189.478 883.09 188.949 883.202 188.408C883.314 187.867 883.843 187.52 884.384 187.632C884.925 187.744 885.272 188.273 885.16 188.814C885.048 189.355 884.519 189.702 883.978 189.59Z" fill="#D9D9D9"/>
<path opacity="0.5" d="M783.627 145.065C783.086 144.953 782.739 144.424 782.851 143.883C782.963 143.342 783.492 142.995 784.033 143.107C784.574 143.219 784.921 143.748 784.809 144.289C784.697 144.83 784.168 145.177 783.627 145.065Z" fill="#D9D9D9"/>
<path opacity="0.5" d="M971.978 175.59C971.437 175.478 971.09 174.949 971.202 174.408C971.314 173.867 971.843 173.52 972.384 173.632C972.925 173.744 973.272 174.273 973.16 174.814C973.048 175.355 972.519 175.702 971.978 175.59Z" fill="#D9D9D9"/>
<path opacity="0.5" d="M761.978 155.911C761.437 155.799 761.09 155.27 761.202 154.729C761.314 154.188 761.843 153.841 762.384 153.953C762.925 154.065 763.272 154.594 763.16 155.135C763.048 155.676 762.519 156.023 761.978 155.911Z" fill="#D9D9D9"/>
<path d="M208.979 213.281C209.414 212.941 209.492 212.313 209.153 211.877C208.813 211.442 208.185 211.364 207.749 211.703C207.314 212.043 207.236 212.671 207.575 213.107C207.915 213.542 208.543 213.62 208.979 213.281Z" fill="#D9D9D9"/>
<path opacity="0.5" d="M202.065 228.809C202.5 228.469 202.578 227.841 202.239 227.405C201.899 226.97 201.271 226.892 200.835 227.231C200.399 227.571 200.322 228.199 200.661 228.635C201.001 229.07 201.629 229.148 202.065 228.809Z" fill="#D9D9D9"/>
<path opacity="0.5" d="M2.01831 209.192C2.45388 208.852 2.53171 208.224 2.19215 207.788C1.8526 207.353 1.22423 207.275 0.788666 207.614C0.353098 207.954 0.275265 208.582 0.614822 209.018C0.954379 209.453 1.58274 209.531 2.01831 209.192Z" fill="#D9D9D9"/>
<path opacity="0.5" d="M172.018 267.192C172.453 266.852 172.531 266.224 172.192 265.788C171.852 265.353 171.224 265.275 170.788 265.614C170.353 265.954 170.275 266.582 170.614 267.018C170.954 267.453 171.582 267.531 172.018 267.192Z" fill="#D9D9D9"/>
<path opacity="0.5" d="M90.0183 262.192C90.4539 261.852 90.5317 261.224 90.1922 260.788C89.8526 260.353 89.2242 260.275 88.7887 260.614C88.3531 260.954 88.2753 261.582 88.6148 262.018C88.9544 262.453 89.5827 262.531 90.0183 262.192Z" fill="#D9D9D9"/>
<path opacity="0.5" d="M358.018 222.192C358.453 221.852 358.531 221.224 358.192 220.788C357.852 220.353 357.224 220.275 356.788 220.614C356.353 220.954 356.275 221.582 356.614 222.018C356.954 222.453 357.582 222.531 358.018 222.192Z" fill="#D9D9D9"/>
<path opacity="0.5" d="M226.268 228.961C226.703 228.621 226.781 227.993 226.442 227.557C226.102 227.122 225.474 227.044 225.038 227.383C224.603 227.723 224.525 228.351 224.864 228.787C225.204 229.222 225.832 229.3 226.268 228.961Z" fill="#D9D9D9"/>
<path d="M237.829 262.969C237.018 263.137 236.496 263.931 236.664 264.742C236.832 265.553 237.626 266.075 238.437 265.907C239.248 265.739 239.77 264.945 239.602 264.134C239.434 263.323 238.64 262.801 237.829 262.969Z" fill="#D9D9D9"/>
<path d="M252.322 276.295C251.781 276.407 251.434 276.936 251.546 277.477C251.658 278.018 252.187 278.365 252.728 278.253C253.269 278.141 253.616 277.612 253.504 277.071C253.392 276.53 252.863 276.183 252.322 276.295Z" fill="#D9D9D9"/>
<path d="M135.978 262.203C135.437 262.315 135.09 262.844 135.202 263.385C135.314 263.926 135.843 264.273 136.384 264.161C136.925 264.049 137.272 263.52 137.16 262.979C137.048 262.438 136.519 262.091 135.978 262.203Z" fill="#D9D9D9"/>
<path d="M226.54 277.551C225.728 277.719 225.207 278.513 225.375 279.324C225.543 280.135 226.337 280.657 227.148 280.489C227.959 280.321 228.481 279.527 228.313 278.716C228.145 277.905 227.351 277.383 226.54 277.551Z" fill="#D9D9D9"/>
<path d="M41.4696 273.304C40.6584 273.472 40.137 274.266 40.305 275.077C40.473 275.888 41.2668 276.41 42.078 276.242C42.8893 276.074 43.4107 275.28 43.2427 274.469C43.0747 273.658 42.2808 273.136 41.4696 273.304Z" fill="#D9D9D9"/>
<path d="M59.4696 220.304C58.6584 220.472 58.137 221.266 58.305 222.077C58.473 222.888 59.2668 223.41 60.078 223.242C60.8893 223.074 61.4107 222.28 61.2427 221.469C61.0747 220.658 60.2808 220.136 59.4696 220.304Z" fill="#D9D9D9"/>
<path d="M224.56 260.606C224.019 260.718 223.672 261.247 223.784 261.788C223.896 262.329 224.425 262.676 224.966 262.564C225.507 262.452 225.854 261.923 225.742 261.382C225.63 260.841 225.101 260.494 224.56 260.606Z" fill="#D9D9D9"/>
<path d="M149.978 238.203C149.437 238.315 149.09 238.844 149.202 239.385C149.314 239.926 149.843 240.273 150.384 240.161C150.925 240.049 151.272 239.52 151.16 238.979C151.048 238.438 150.519 238.091 149.978 238.203Z" fill="#D9D9D9"/>
<path d="M315.978 248.203C315.437 248.315 315.09 248.844 315.202 249.385C315.314 249.926 315.843 250.273 316.384 250.161C316.925 250.049 317.272 249.52 317.16 248.979C317.048 248.438 316.519 248.091 315.978 248.203Z" fill="#D9D9D9"/>
<path d="M337.978 205.203C337.437 205.315 337.09 205.844 337.202 206.385C337.314 206.926 337.843 207.273 338.384 207.161C338.925 207.049 339.272 206.52 339.16 205.979C339.048 205.438 338.519 205.091 337.978 205.203Z" fill="#D9D9D9"/>
<path opacity="0.5" d="M237.627 249.728C237.086 249.84 236.739 250.369 236.851 250.91C236.963 251.451 237.492 251.798 238.033 251.686C238.574 251.574 238.921 251.045 238.809 250.504C238.697 249.963 238.168 249.616 237.627 249.728Z" fill="#D9D9D9"/>
<path opacity="0.5" d="M425.978 219.203C425.437 219.315 425.09 219.844 425.202 220.385C425.314 220.926 425.843 221.273 426.384 221.161C426.925 221.049 427.272 220.52 427.16 219.979C427.048 219.438 426.519 219.091 425.978 219.203Z" fill="#D9D9D9"/>
<path opacity="0.5" d="M215.978 238.882C215.437 238.994 215.09 239.523 215.202 240.064C215.314 240.605 215.843 240.952 216.384 240.84C216.925 240.728 217.272 240.199 217.16 239.658C217.048 239.117 216.519 238.77 215.978 238.882Z" fill="#D9D9D9"/>
<path d="M553.979 266.512C554.414 266.852 554.492 267.48 554.153 267.916C553.813 268.351 553.185 268.429 552.749 268.09C552.314 267.75 552.236 267.122 552.575 266.686C552.915 266.251 553.543 266.173 553.979 266.512Z" fill="#D9D9D9"/>
<path opacity="0.5" d="M547.065 250.984C547.5 251.324 547.578 251.952 547.239 252.388C546.899 252.823 546.271 252.901 545.835 252.562C545.399 252.222 545.322 251.594 545.661 251.158C546.001 250.723 546.629 250.645 547.065 250.984Z" fill="#D9D9D9"/>
<path opacity="0.5" d="M347.018 270.601C347.453 270.941 347.531 271.569 347.192 272.005C346.852 272.44 346.224 272.518 345.788 272.179C345.353 271.839 345.275 271.211 345.614 270.775C345.954 270.34 346.582 270.262 347.018 270.601Z" fill="#D9D9D9"/>
<path opacity="0.5" d="M517.018 212.601C517.453 212.941 517.531 213.569 517.192 214.005C516.852 214.44 516.224 214.518 515.788 214.179C515.353 213.839 515.275 213.211 515.614 212.775C515.954 212.34 516.582 212.262 517.018 212.601Z" fill="#D9D9D9"/>
<path opacity="0.5" d="M435.018 217.601C435.453 217.941 435.531 218.569 435.192 219.005C434.852 219.44 434.224 219.518 433.788 219.179C433.353 218.839 433.275 218.211 433.614 217.775C433.954 217.34 434.582 217.262 435.018 217.601Z" fill="#D9D9D9"/>
<path opacity="0.5" d="M703.018 257.601C703.453 257.941 703.531 258.569 703.192 259.005C702.852 259.44 702.224 259.518 701.788 259.179C701.353 258.839 701.275 258.211 701.614 257.775C701.954 257.34 702.582 257.262 703.018 257.601Z" fill="#D9D9D9"/>
<path opacity="0.5" d="M571.268 250.832C571.703 251.172 571.781 251.8 571.442 252.236C571.102 252.671 570.474 252.749 570.038 252.41C569.603 252.07 569.525 251.442 569.864 251.006C570.204 250.571 570.832 250.493 571.268 250.832Z" fill="#D9D9D9"/>
<path d="M582.829 216.824C582.018 216.656 581.496 215.862 581.664 215.051C581.832 214.24 582.626 213.718 583.437 213.886C584.248 214.054 584.77 214.848 584.602 215.659C584.434 216.47 583.64 216.992 582.829 216.824Z" fill="#D9D9D9"/>
<path d="M597.322 203.498C596.781 203.386 596.434 202.857 596.546 202.316C596.658 201.775 597.187 201.428 597.728 201.54C598.269 201.652 598.616 202.181 598.504 202.722C598.392 203.263 597.863 203.61 597.322 203.498Z" fill="#D9D9D9"/>
<path d="M480.978 217.59C480.437 217.478 480.09 216.949 480.202 216.408C480.314 215.867 480.843 215.52 481.384 215.632C481.925 215.744 482.272 216.273 482.16 216.814C482.048 217.355 481.519 217.702 480.978 217.59Z" fill="#D9D9D9"/>
<path d="M571.54 202.242C570.729 202.074 570.207 201.28 570.375 200.469C570.543 199.658 571.337 199.136 572.148 199.304C572.96 199.472 573.481 200.266 573.313 201.077C573.145 201.888 572.351 202.41 571.54 202.242Z" fill="#D9D9D9"/>
<path d="M386.47 206.489C385.659 206.321 385.137 205.527 385.305 204.716C385.473 203.905 386.267 203.383 387.078 203.551C387.89 203.719 388.411 204.513 388.243 205.324C388.075 206.135 387.281 206.657 386.47 206.489Z" fill="#D9D9D9"/>
<path d="M404.47 259.489C403.659 259.321 403.137 258.527 403.305 257.716C403.473 256.905 404.267 256.383 405.078 256.551C405.89 256.719 406.411 257.513 406.243 258.324C406.075 259.135 405.281 259.657 404.47 259.489Z" fill="#D9D9D9"/>
<path d="M569.56 219.187C569.019 219.075 568.672 218.546 568.784 218.005C568.896 217.464 569.425 217.117 569.966 217.229C570.507 217.341 570.854 217.87 570.742 218.411C570.63 218.952 570.101 219.299 569.56 219.187Z" fill="#D9D9D9"/>
<path d="M494.978 241.59C494.437 241.478 494.09 240.949 494.202 240.408C494.314 239.867 494.843 239.52 495.384 239.632C495.925 239.744 496.272 240.273 496.16 240.814C496.048 241.355 495.519 241.702 494.978 241.59Z" fill="#D9D9D9"/>
<path d="M660.978 231.59C660.437 231.478 660.09 230.949 660.202 230.408C660.314 229.867 660.843 229.52 661.384 229.632C661.925 229.744 662.272 230.273 662.16 230.814C662.048 231.355 661.519 231.702 660.978 231.59Z" fill="#D9D9D9"/>
<path d="M682.978 274.59C682.437 274.478 682.09 273.949 682.202 273.408C682.314 272.867 682.843 272.52 683.384 272.632C683.925 272.744 684.272 273.273 684.16 273.814C684.048 274.355 683.519 274.702 682.978 274.59Z" fill="#D9D9D9"/>
<path opacity="0.5" d="M582.627 230.065C582.086 229.953 581.739 229.424 581.851 228.883C581.963 228.342 582.492 227.995 583.033 228.107C583.574 228.219 583.921 228.748 583.809 229.289C583.697 229.83 583.168 230.177 582.627 230.065Z" fill="#D9D9D9"/>
<path opacity="0.5" d="M770.978 260.59C770.437 260.478 770.09 259.949 770.202 259.408C770.314 258.867 770.843 258.52 771.384 258.632C771.925 258.744 772.272 259.273 772.16 259.814C772.048 260.355 771.519 260.702 770.978 260.59Z" fill="#D9D9D9"/>
<path opacity="0.5" d="M560.978 240.911C560.437 240.799 560.09 240.27 560.202 239.729C560.314 239.188 560.843 238.841 561.384 238.953C561.925 239.065 562.272 239.594 562.16 240.135C562.048 240.676 561.519 241.023 560.978 240.911Z" fill="#D9D9D9"/>
<path d="M333.979 8.28032C334.414 7.94076 334.492 7.3124 334.153 6.87683C333.813 6.44126 333.185 6.36343 332.749 6.70299C332.314 7.04254 332.236 7.67091 332.575 8.10648C332.915 8.54204 333.543 8.61988 333.979 8.28032Z" fill="#D9D9D9"/>
<path opacity="0.5" d="M327.065 23.8092C327.5 23.4696 327.578 22.8412 327.239 22.4057C326.899 21.9701 326.271 21.8923 325.835 22.2318C325.399 22.5714 325.322 23.1997 325.661 23.6353C326.001 24.0709 326.629 24.1487 327.065 23.8092Z" fill="#D9D9D9"/>
<path opacity="0.5" d="M127.018 4.19194C127.453 3.85238 127.531 3.22402 127.192 2.78845C126.852 2.35288 126.224 2.27505 125.788 2.61461C125.353 2.95417 125.275 3.58253 125.614 4.0181C125.954 4.45366 126.582 4.5315 127.018 4.19194Z" fill="#D9D9D9"/>
<path opacity="0.5" d="M297.018 62.1919C297.453 61.8524 297.531 61.224 297.192 60.7885C296.852 60.3529 296.224 60.2751 295.788 60.6146C295.353 60.9542 295.275 61.5825 295.614 62.0181C295.954 62.4537 296.582 62.5315 297.018 62.1919Z" fill="#D9D9D9"/>
<path opacity="0.5" d="M215.018 57.1919C215.453 56.8524 215.531 56.224 215.192 55.7885C214.852 55.3529 214.224 55.2751 213.788 55.6146C213.353 55.9542 213.275 56.5825 213.614 57.0181C213.954 57.4537 214.582 57.5315 215.018 57.1919Z" fill="#D9D9D9"/>
<path opacity="0.5" d="M483.018 17.1919C483.453 16.8524 483.531 16.224 483.192 15.7885C482.852 15.3529 482.224 15.2751 481.788 15.6146C481.353 15.9542 481.275 16.5825 481.614 17.0181C481.954 17.4537 482.582 17.5315 483.018 17.1919Z" fill="#D9D9D9"/>
<path opacity="0.5" d="M351.268 23.961C351.703 23.6214 351.781 22.993 351.442 22.5575C351.102 22.1219 350.474 22.0441 350.038 22.3836C349.603 22.7232 349.525 23.3515 349.864 23.7871C350.204 24.2227 350.832 24.3005 351.268 23.961Z" fill="#D9D9D9"/>
<path d="M362.829 57.9691C362.018 58.1371 361.496 58.9309 361.664 59.7421C361.832 60.5533 362.626 61.0748 363.437 60.9067C364.248 60.7387 364.77 59.9449 364.602 59.1337C364.434 58.3225 363.64 57.8011 362.829 57.9691Z" fill="#D9D9D9"/>
<path d="M377.322 71.2946C376.781 71.4066 376.434 71.9358 376.546 72.4766C376.658 73.0174 377.187 73.365 377.728 73.253C378.269 73.141 378.616 72.6118 378.504 72.071C378.392 71.5302 377.863 71.1826 377.322 71.2946Z" fill="#D9D9D9"/>
<path d="M260.978 57.2028C260.437 57.3148 260.09 57.844 260.202 58.3848C260.314 58.9256 260.843 59.2732 261.384 59.1612C261.925 59.0492 262.272 58.52 262.16 57.9792C262.048 57.4384 261.519 57.0908 260.978 57.2028Z" fill="#D9D9D9"/>
<path d="M351.54 72.5511C350.728 72.7191 350.207 73.5129 350.375 74.3241C350.543 75.1353 351.337 75.6567 352.148 75.4887C352.959 75.3207 353.481 74.5269 353.313 73.7157C353.145 72.9045 352.351 72.383 351.54 72.5511Z" fill="#D9D9D9"/>
<path d="M166.47 68.304C165.659 68.472 165.137 69.2658 165.305 70.077C165.473 70.8882 166.267 71.4097 167.078 71.2416C167.889 71.0736 168.411 70.2798 168.243 69.4686C168.075 68.6574 167.281 68.136 166.47 68.304Z" fill="#D9D9D9"/>
<path d="M184.47 15.304C183.659 15.472 183.137 16.2658 183.305 17.077C183.473 17.8882 184.267 18.4096 185.078 18.2416C185.89 18.0736 186.411 17.2798 186.243 16.4686C186.075 15.6574 185.281 15.1359 184.47 15.304Z" fill="#D9D9D9"/>
<path d="M349.56 55.6057C349.019 55.7177 348.672 56.2469 348.784 56.7877C348.896 57.3285 349.425 57.6761 349.966 57.5641C350.507 57.4521 350.854 56.9229 350.742 56.3821C350.63 55.8413 350.101 55.4937 349.56 55.6057Z" fill="#D9D9D9"/>
<path d="M274.978 33.2028C274.437 33.3148 274.09 33.844 274.202 34.3848C274.314 34.9256 274.843 35.2732 275.384 35.1612C275.925 35.0492 276.272 34.52 276.16 33.9792C276.048 33.4384 275.519 33.0908 274.978 33.2028Z" fill="#D9D9D9"/>
<path d="M440.978 43.2028C440.437 43.3148 440.09 43.844 440.202 44.3848C440.314 44.9256 440.843 45.2732 441.384 45.1612C441.925 45.0492 442.272 44.52 442.16 43.9792C442.048 43.4384 441.519 43.0908 440.978 43.2028Z" fill="#D9D9D9"/>
<path d="M462.978 0.202801C462.437 0.314807 462.09 0.844017 462.202 1.38482C462.314 1.92563 462.843 2.27325 463.384 2.16124C463.925 2.04923 464.272 1.52002 464.16 0.979216C464.048 0.438408 463.519 0.0907952 462.978 0.202801Z" fill="#D9D9D9"/>
<path opacity="0.5" d="M362.627 44.7282C362.086 44.8402 361.739 45.3694 361.851 45.9102C361.963 46.451 362.492 46.7986 363.033 46.6866C363.574 46.5746 363.921 46.0454 363.809 45.5046C363.697 44.9638 363.168 44.6162 362.627 44.7282Z" fill="#D9D9D9"/>
<path opacity="0.5" d="M550.978 14.2028C550.437 14.3148 550.09 14.844 550.202 15.3848C550.314 15.9256 550.843 16.2732 551.384 16.1612C551.925 16.0492 552.272 15.52 552.16 14.9792C552.048 14.4384 551.519 14.0908 550.978 14.2028Z" fill="#D9D9D9"/>
<path opacity="0.5" d="M340.978 33.8815C340.437 33.9935 340.09 34.5227 340.202 35.0635C340.314 35.6043 340.843 35.9519 341.384 35.8399C341.925 35.7279 342.272 35.1987 342.16 34.6579C342.048 34.1171 341.519 33.7694 340.978 33.8815Z" fill="#D9D9D9"/>
</g>
<path opacity="0.9" d="M561.571 120L561 120.571L572.429 132L573 131.428L561.571 120Z" fill="url(#paint0_linear_2_722)"/>
<path opacity="0.9" d="M561.571 132L561 131.429L572.429 120L573 120.572L561.571 132Z" fill="url(#paint1_linear_2_722)"/>
<path d="M567 126.808C567.446 126.808 567.808 126.446 567.808 126C567.808 125.554 567.446 125.192 567 125.192C566.554 125.192 566.192 125.554 566.192 126C566.192 126.446 566.554 126.808 567 126.808Z" fill="white"/>
<path opacity="0.9" d="M680.571 221L680 221.571L691.429 233L692 232.428L680.571 221Z" fill="url(#paint2_linear_2_722)"/>
<path opacity="0.9" d="M680.571 233L680 232.429L691.429 221L692 221.572L680.571 233Z" fill="url(#paint3_linear_2_722)"/>
<path d="M686 227.808C686.446 227.808 686.808 227.446 686.808 227C686.808 226.554 686.446 226.192 686 226.192C685.554 226.192 685.192 226.554 685.192 227C685.192 227.446 685.554 227.808 686 227.808Z" fill="white"/>
<path opacity="0.9" d="M391.571 178L391 178.571L402.429 190L403 189.428L391.571 178Z" fill="url(#paint4_linear_2_722)"/>
<path opacity="0.9" d="M391.571 190L391 189.429L402.429 178L403 178.572L391.571 190Z" fill="url(#paint5_linear_2_722)"/>
<path d="M397 184.808C397.446 184.808 397.808 184.446 397.808 184C397.808 183.554 397.446 183.192 397 183.192C396.554 183.192 396.192 183.554 396.192 184C396.192 184.446 396.554 184.808 397 184.808Z" fill="white"/>
<path opacity="0.9" d="M812.286 174L812 174.286L817.714 180L818 179.715L812.286 174Z" fill="url(#paint6_linear_2_722)"/>
<path opacity="0.9" d="M812.286 180L812 179.714L817.714 174L818 174.285L812.286 180Z" fill="url(#paint7_linear_2_722)"/>
<path d="M815.002 177.404C815.225 177.404 815.406 177.223 815.406 177C815.406 176.777 815.225 176.596 815.002 176.596C814.779 176.596 814.598 176.777 814.598 177C814.598 177.223 814.779 177.404 815.002 177.404Z" fill="white"/>
<path opacity="0.9" d="M220.667 196L220 196.667L233.333 210L234 209.334L220.667 196Z" fill="url(#paint8_linear_2_722)"/>
<path opacity="0.9" d="M220.667 210L220 209.333L233.333 196L234 196.666L220.667 210Z" fill="url(#paint9_linear_2_722)"/>
<path d="M226.997 203.942C227.518 203.942 227.94 203.52 227.94 202.999C227.94 202.478 227.518 202.056 226.997 202.056C226.476 202.056 226.054 202.478 226.054 202.999C226.054 203.52 226.476 203.942 226.997 203.942Z" fill="white"/>
<path opacity="0.9" d="M824.667 131L824 131.667L837.333 145L838 144.334L824.667 131Z" fill="url(#paint10_linear_2_722)"/>
<path opacity="0.9" d="M824.667 145L824 144.333L837.333 131L838 131.666L824.667 145Z" fill="url(#paint11_linear_2_722)"/>
<path d="M830.997 138.942C831.518 138.942 831.94 138.52 831.94 137.999C831.94 137.478 831.518 137.056 830.997 137.056C830.476 137.056 830.054 137.478 830.054 137.999C830.054 138.52 830.476 138.942 830.997 138.942Z" fill="white"/>
<path opacity="0.9" d="M336.667 87.9998L336 88.6665L349.333 102L350 101.333L336.667 87.9998Z" fill="url(#paint12_linear_2_722)"/>
<path opacity="0.9" d="M336.667 102L336 101.333L349.333 87.9997L350 88.6663L336.667 102Z" fill="url(#paint13_linear_2_722)"/>
<path d="M342.997 95.9423C343.518 95.9423 343.94 95.5202 343.94 94.9995C343.94 94.4788 343.518 94.0567 342.997 94.0567C342.476 94.0567 342.054 94.4788 342.054 94.9995C342.054 95.5202 342.476 95.9423 342.997 95.9423Z" fill="white"/>
</g>
</g>
<defs>
<linearGradient id="paint0_linear_2_722" x1="561.286" y1="120.285" x2="572.715" y2="131.714" gradientUnits="userSpaceOnUse">
<stop stop-color="white" stop-opacity="0"/>
<stop offset="0.5" stop-color="white"/>
<stop offset="1" stop-color="white" stop-opacity="0"/>
</linearGradient>
<linearGradient id="paint1_linear_2_722" x1="561.286" y1="131.715" x2="572.714" y2="120.286" gradientUnits="userSpaceOnUse">
<stop stop-color="white" stop-opacity="0"/>
<stop offset="0.5" stop-color="white"/>
<stop offset="1" stop-color="white" stop-opacity="0"/>
</linearGradient>
<linearGradient id="paint2_linear_2_722" x1="680.286" y1="221.285" x2="691.715" y2="232.714" gradientUnits="userSpaceOnUse">
<stop stop-color="white" stop-opacity="0"/>
<stop offset="0.5" stop-color="white"/>
<stop offset="1" stop-color="white" stop-opacity="0"/>
</linearGradient>
<linearGradient id="paint3_linear_2_722" x1="680.286" y1="232.715" x2="691.714" y2="221.286" gradientUnits="userSpaceOnUse">
<stop stop-color="white" stop-opacity="0"/>
<stop offset="0.5" stop-color="white"/>
<stop offset="1" stop-color="white" stop-opacity="0"/>
</linearGradient>
<linearGradient id="paint4_linear_2_722" x1="391.286" y1="178.285" x2="402.715" y2="189.714" gradientUnits="userSpaceOnUse">
<stop stop-color="white" stop-opacity="0"/>
<stop offset="0.5" stop-color="white"/>
<stop offset="1" stop-color="white" stop-opacity="0"/>
</linearGradient>
<linearGradient id="paint5_linear_2_722" x1="391.286" y1="189.715" x2="402.714" y2="178.286" gradientUnits="userSpaceOnUse">
<stop stop-color="white" stop-opacity="0"/>
<stop offset="0.5" stop-color="white"/>
<stop offset="1" stop-color="white" stop-opacity="0"/>
</linearGradient>
<linearGradient id="paint6_linear_2_722" x1="812.143" y1="174.143" x2="817.857" y2="179.857" gradientUnits="userSpaceOnUse">
<stop stop-color="white" stop-opacity="0"/>
<stop offset="0.5" stop-color="white"/>
<stop offset="1" stop-color="white" stop-opacity="0"/>
</linearGradient>
<linearGradient id="paint7_linear_2_722" x1="812.143" y1="179.857" x2="817.857" y2="174.143" gradientUnits="userSpaceOnUse">
<stop stop-color="white" stop-opacity="0"/>
<stop offset="0.5" stop-color="white"/>
<stop offset="1" stop-color="white" stop-opacity="0"/>
</linearGradient>
<linearGradient id="paint8_linear_2_722" x1="220.333" y1="196.334" x2="233.666" y2="209.667" gradientUnits="userSpaceOnUse">
<stop stop-color="white" stop-opacity="0"/>
<stop offset="0.5" stop-color="white"/>
<stop offset="1" stop-color="white" stop-opacity="0"/>
</linearGradient>
<linearGradient id="paint9_linear_2_722" x1="220.333" y1="209.666" x2="233.667" y2="196.333" gradientUnits="userSpaceOnUse">
<stop stop-color="white" stop-opacity="0"/>
<stop offset="0.5" stop-color="white"/>
<stop offset="1" stop-color="white" stop-opacity="0"/>
</linearGradient>
<linearGradient id="paint10_linear_2_722" x1="824.333" y1="131.334" x2="837.666" y2="144.667" gradientUnits="userSpaceOnUse">
<stop stop-color="white" stop-opacity="0"/>
<stop offset="0.5" stop-color="white"/>
<stop offset="1" stop-color="white" stop-opacity="0"/>
</linearGradient>
<linearGradient id="paint11_linear_2_722" x1="824.333" y1="144.666" x2="837.667" y2="131.333" gradientUnits="userSpaceOnUse">
<stop stop-color="white" stop-opacity="0"/>
<stop offset="0.5" stop-color="white"/>
<stop offset="1" stop-color="white" stop-opacity="0"/>
</linearGradient>
<linearGradient id="paint12_linear_2_722" x1="336.333" y1="88.3335" x2="349.667" y2="101.667" gradientUnits="userSpaceOnUse">
<stop stop-color="white" stop-opacity="0"/>
<stop offset="0.5" stop-color="white"/>
<stop offset="1" stop-color="white" stop-opacity="0"/>
</linearGradient>
<linearGradient id="paint13_linear_2_722" x1="336.333" y1="101.666" x2="349.667" y2="88.333" gradientUnits="userSpaceOnUse">
<stop stop-color="white" stop-opacity="0"/>
<stop offset="0.5" stop-color="white"/>
<stop offset="1" stop-color="white" stop-opacity="0"/>
</linearGradient>
<clipPath id="clip0_2_722">
<rect width="1115" height="284" fill="white"/>
</clipPath>
</defs>
</svg>
